<svg width="30" height="31" viewBox="0 0 30 31" fill="none" xmlns="http://www.w3.org/2000/svg">
<path d="M14.7183 29.0029L0.553711 8.57606L14.7183 25.7227L22.7698 15.2856L17.7003 7.38325L24.8572 15.2856L14.7183 29.0029Z" fill="black"/>
<path d="M3.83393 3.65573L5.77225 0.673706H23.3662L28.8829 8.87426L22.7698 2.76112H6.96506L6.36865 3.65573L15.3147 16.3293L3.83393 3.65573Z" fill="black"/>
<path d="M14.7183 29.0029L0.553711 8.57606L14.7183 25.7227L22.7698 15.2856L17.7003 7.38325L24.8572 15.2856L14.7183 29.0029Z" stroke="black" stroke-width="1.34733"/>
<path d="M3.83393 3.65573L5.77225 0.673706H23.3662L28.8829 8.87426L22.7698 2.76112H6.96506L6.36865 3.65573L15.3147 16.3293L3.83393 3.65573Z" stroke="black" stroke-width="1.34733"/>
</svg>
