<svg width="138" height="22" viewBox="0 0 138 22" fill="none" xmlns="http://www.w3.org/2000/svg">
<path d="M12.5411 4.29373C12.4372 4.50157 12.3144 4.648 12.1727 4.73302C12.0404 4.81805 11.8798 4.86056 11.6908 4.86056C11.5019 4.86056 11.2893 4.78971 11.0532 4.648C10.817 4.49684 10.5383 4.33152 10.2171 4.15202C9.89589 3.97253 9.518 3.81193 9.08344 3.67022C8.65831 3.51906 8.15289 3.44349 7.56717 3.44349C7.03813 3.44349 6.57522 3.50962 6.17844 3.64188C5.7911 3.76469 5.46045 3.93946 5.18649 4.16619C4.92197 4.39292 4.72358 4.66689 4.59132 4.9881C4.45906 5.29985 4.39293 5.64467 4.39293 6.02256C4.39293 6.50436 4.52519 6.90587 4.78971 7.22707C5.06367 7.54827 5.42266 7.82224 5.86668 8.04897C6.3107 8.2757 6.81612 8.47882 7.38295 8.65831C7.94978 8.83781 8.52605 9.03148 9.11178 9.23931C9.70695 9.4377 10.2879 9.67388 10.8548 9.94785C11.4216 10.2124 11.927 10.5525 12.371 10.9681C12.8151 11.3744 13.1693 11.8751 13.4338 12.4702C13.7078 13.0654 13.8448 13.7881 13.8448 14.6384C13.8448 15.5642 13.6842 16.4333 13.363 17.2458C13.0512 18.0488 12.5883 18.7526 11.9743 19.3572C11.3696 19.9524 10.628 20.4247 9.74946 20.7743C8.87087 21.1144 7.86475 21.2844 6.7311 21.2844C6.07924 21.2844 5.43684 21.2183 4.80388 21.086C4.17092 20.9632 3.56158 20.7837 2.97585 20.5476C2.39958 20.3114 1.85637 20.028 1.34622 19.6973C0.84552 19.3667 0.39678 18.9982 0 18.592L1.10532 16.764C1.20924 16.6317 1.33205 16.5231 1.47376 16.438C1.62491 16.3436 1.79024 16.2963 1.96973 16.2963C2.20591 16.2963 2.46098 16.3955 2.73495 16.5939C3.00892 16.7829 3.33012 16.9954 3.69856 17.2316C4.07645 17.4678 4.51574 17.6851 5.01644 17.8835C5.52658 18.0724 6.13592 18.1669 6.84446 18.1669C7.93088 18.1669 8.77168 17.9118 9.36685 17.4017C9.96202 16.8821 10.2596 16.1405 10.2596 15.1768C10.2596 14.6384 10.1226 14.1991 9.84865 13.859C9.58413 13.5189 9.22987 13.2355 8.78585 13.0087C8.34183 12.7725 7.83641 12.5742 7.26958 12.4136C6.70275 12.253 6.12648 12.0782 5.54075 11.8892C4.95503 11.7003 4.37875 11.4736 3.81193 11.209C3.2451 10.9445 2.73967 10.5997 2.29566 10.1746C1.85164 9.74946 1.49265 9.22042 1.21868 8.58746C0.954162 7.94505 0.821902 7.15622 0.821902 6.22095C0.821902 5.47462 0.968333 4.74719 1.26119 4.03866C1.5635 3.33012 1.99807 2.70189 2.5649 2.15395C3.14118 1.60602 3.84499 1.16672 4.67634 0.836073C5.50769 0.505423 6.45713 0.340098 7.52466 0.340098C8.73389 0.340098 9.84865 0.529041 10.8689 0.906927C11.8892 1.28481 12.7584 1.81385 13.4764 2.49405L12.5411 4.29373Z" fill="black"/>
<path d="M21.3307 21.2844C20.0742 21.2844 19.1059 20.9302 18.4257 20.2216C17.7455 19.5036 17.4054 18.5164 17.4054 17.2599V9.14012H15.9317C15.7427 9.14012 15.5774 9.07871 15.4357 8.9559C15.3034 8.83309 15.2373 8.64887 15.2373 8.40324V7.01451L17.5755 6.6319L18.3123 2.6641C18.3501 2.47515 18.4352 2.32872 18.5674 2.2248C18.7091 2.12089 18.8839 2.06893 19.0917 2.06893H20.9056V6.64607H24.7317V9.14012H20.9056V17.019C20.9056 17.4725 21.019 17.8268 21.2457 18.0818C21.4724 18.3369 21.7747 18.4645 22.1526 18.4645C22.3699 18.4645 22.5494 18.4408 22.6911 18.3936C22.8423 18.3369 22.9698 18.2802 23.0737 18.2236C23.1871 18.1669 23.2863 18.1149 23.3713 18.0677C23.4563 18.011 23.5413 17.9827 23.6264 17.9827C23.7303 17.9827 23.8153 18.011 23.8814 18.0677C23.9476 18.1149 24.0184 18.1905 24.094 18.2944L25.1426 19.9949C24.6325 20.42 24.0468 20.7412 23.3855 20.9585C22.7242 21.1758 22.0392 21.2844 21.3307 21.2844Z" fill="black"/>
<path d="M30.7179 6.51853V15.7578C30.7179 16.6459 30.921 17.3355 31.3273 17.8268C31.7429 18.3086 32.3617 18.5495 33.1836 18.5495C33.7883 18.5495 34.3551 18.4172 34.8841 18.1527C35.4132 17.8787 35.9139 17.5056 36.3862 17.0332V6.51853H39.8864V21.0577H37.7466C37.2931 21.0577 36.9956 20.8451 36.8539 20.42L36.613 19.258C36.3106 19.5603 35.9989 19.839 35.6777 20.0941C35.3565 20.3397 35.0117 20.5523 34.6432 20.7318C34.2842 20.9018 33.8922 21.0341 33.467 21.1286C33.0514 21.2325 32.6026 21.2844 32.1208 21.2844C31.3273 21.2844 30.6235 21.1522 30.0094 20.8876C29.4048 20.6137 28.8946 20.2311 28.479 19.7398C28.0633 19.2486 27.7468 18.6676 27.5295 17.9968C27.3217 17.3166 27.2178 16.5703 27.2178 15.7578V6.51853H30.7179Z" fill="black"/>
<path d="M53.8547 21.0577C53.4013 21.0577 53.1037 20.8451 52.962 20.42L52.6786 19.0171C52.3763 19.3572 52.0598 19.6642 51.7291 19.9382C51.3985 20.2122 51.0395 20.4484 50.6522 20.6467C50.2743 20.8451 49.8633 20.9963 49.4193 21.1002C48.9847 21.2136 48.5124 21.2703 48.0022 21.2703C47.2087 21.2703 46.4812 21.1049 45.8199 20.7743C45.1586 20.4436 44.5871 19.9666 44.1053 19.343C43.6329 18.7101 43.2645 17.9307 43 17.0049C42.7449 16.0791 42.6174 15.021 42.6174 13.8306C42.6174 12.7537 42.7638 11.7523 43.0566 10.8264C43.3495 9.90061 43.7699 9.09761 44.3178 8.41741C44.8658 7.73722 45.5223 7.20818 46.2876 6.83029C47.0528 6.44296 47.9125 6.24929 48.8666 6.24929C49.6791 6.24929 50.3735 6.38155 50.9497 6.64607C51.526 6.90114 52.0409 7.24596 52.4944 7.68053V0H55.9945V21.0577H53.8547ZM49.1926 18.4928C49.92 18.4928 50.5388 18.3416 51.0489 18.0393C51.5591 17.737 52.0409 17.3072 52.4944 16.7498V10.2313C52.0976 9.74946 51.663 9.40936 51.1906 9.21097C50.7277 9.01258 50.227 8.91339 49.6885 8.91339C49.1595 8.91339 48.6777 9.01258 48.2431 9.21097C47.818 9.40936 47.4543 9.71167 47.152 10.1179C46.8591 10.5147 46.6324 11.0248 46.4718 11.6483C46.3112 12.2624 46.2309 12.9898 46.2309 13.8306C46.2309 14.6809 46.297 15.4036 46.4293 15.9987C46.571 16.5845 46.7694 17.0663 47.0244 17.4442C47.2795 17.8126 47.5913 18.0818 47.9597 18.2519C48.3282 18.4125 48.7391 18.4928 49.1926 18.4928Z" fill="black"/>
<path d="M63.5139 6.51853V21.0577H60.0137V6.51853H63.5139ZM64.0382 2.28149C64.0382 2.5838 63.9768 2.86721 63.854 3.13173C63.7311 3.39625 63.5658 3.62771 63.358 3.8261C63.1596 4.02449 62.9234 4.18509 62.6494 4.3079C62.3755 4.42127 62.0826 4.47795 61.7709 4.47795C61.4685 4.47795 61.1804 4.42127 60.9064 4.3079C60.6419 4.18509 60.4105 4.02449 60.2121 3.8261C60.0137 3.62771 59.8531 3.39625 59.7303 3.13173C59.6169 2.86721 59.5602 2.5838 59.5602 2.28149C59.5602 1.96973 59.6169 1.67687 59.7303 1.4029C59.8531 1.12893 60.0137 0.892756 60.2121 0.694366C60.4105 0.495975 60.6419 0.340098 60.9064 0.226732C61.1804 0.103919 61.4685 0.0425125 61.7709 0.0425125C62.0826 0.0425125 62.3755 0.103919 62.6494 0.226732C62.9234 0.340098 63.1596 0.495975 63.358 0.694366C63.5658 0.892756 63.7311 1.12893 63.854 1.4029C63.9768 1.67687 64.0382 1.96973 64.0382 2.28149Z" fill="black"/>
<path d="M73.688 6.2918C74.7744 6.2918 75.7569 6.46657 76.6355 6.81612C77.5235 7.16566 78.2793 7.66164 78.9028 8.30405C79.5263 8.94645 80.0081 9.73057 80.3482 10.6564C80.6883 11.5822 80.8584 12.6167 80.8584 13.7598C80.8584 14.9123 80.6883 15.9515 80.3482 16.8773C80.0081 17.8032 79.5263 18.592 78.9028 19.2438C78.2793 19.8957 77.5235 20.3964 76.6355 20.7459C75.7569 21.0955 74.7744 21.2703 73.688 21.2703C72.6016 21.2703 71.6143 21.0955 70.7263 20.7459C69.8383 20.3964 69.0778 19.8957 68.4448 19.2438C67.8213 18.592 67.3348 17.8032 66.9852 16.8773C66.6451 15.9515 66.4751 14.9123 66.4751 13.7598C66.4751 12.6167 66.6451 11.5822 66.9852 10.6564C67.3348 9.73057 67.8213 8.94645 68.4448 8.30405C69.0778 7.66164 69.8383 7.16566 70.7263 6.81612C71.6143 6.46657 72.6016 6.2918 73.688 6.2918ZM73.688 18.5778C74.8972 18.5778 75.79 18.1716 76.3663 17.3591C76.952 16.5467 77.2448 15.3563 77.2448 13.7881C77.2448 12.2199 76.952 11.0248 76.3663 10.2029C75.79 9.38102 74.8972 8.97007 73.688 8.97007C72.4599 8.97007 71.5529 9.38574 70.9672 10.2171C70.3815 11.039 70.0886 12.2293 70.0886 13.7881C70.0886 15.3469 70.3815 16.5372 70.9672 17.3591C71.5529 18.1716 72.4599 18.5778 73.688 18.5778Z" fill="black"/>
<path d="M87.087 19.3218H96.5956V20.5546H85.6416V0.503052H87.087V19.3218Z" fill="black"/>
<path d="M100.47 6.45476V15.4673C100.47 16.7899 100.773 17.8291 101.377 18.5849C101.982 19.3312 102.903 19.7044 104.141 19.7044C105.057 19.7044 105.912 19.4729 106.705 19.01C107.499 18.5377 108.212 17.8858 108.845 17.0545V6.45476H110.206V20.5546H109.455C109.19 20.5546 109.053 20.4318 109.044 20.1862L108.916 18.0889C108.264 18.9014 107.509 19.5532 106.649 20.0445C105.799 20.5357 104.849 20.7814 103.801 20.7814C103.016 20.7814 102.331 20.6585 101.746 20.4129C101.16 20.1673 100.673 19.813 100.286 19.3501C99.8988 18.8872 99.606 18.3298 99.4076 17.678C99.2092 17.0261 99.11 16.2892 99.11 15.4673V6.45476H100.47Z" fill="black"/>
<path d="M118.099 13.3417L113.196 6.45476H114.486C114.618 6.45476 114.712 6.4831 114.769 6.53978C114.835 6.59646 114.892 6.66259 114.939 6.73817L119.077 12.7182C119.115 12.5576 119.195 12.3876 119.318 12.2081L123.186 6.75234C123.234 6.66732 123.29 6.59646 123.357 6.53978C123.432 6.4831 123.517 6.45476 123.612 6.45476H124.859L119.927 13.2709L125.057 20.5546H123.767C123.635 20.5546 123.531 20.5168 123.456 20.4413C123.38 20.3562 123.319 20.2759 123.272 20.2004L118.992 13.9652C118.945 14.1542 118.874 14.3148 118.779 14.447L114.67 20.2287C114.604 20.3137 114.533 20.3893 114.457 20.4554C114.391 20.5216 114.306 20.5546 114.202 20.5546H112.998L118.099 13.3417Z" fill="black"/>
<path d="M132.317 6.22803C133.111 6.22803 133.843 6.36501 134.514 6.63898C135.194 6.91294 135.779 7.31445 136.271 7.84349C136.771 8.36308 137.159 9.00549 137.433 9.77071C137.716 10.5359 137.858 11.4145 137.858 12.4065C137.858 12.6143 137.825 12.756 137.759 12.8316C137.702 12.9072 137.607 12.9449 137.475 12.9449H127.286V13.2142C127.286 14.2723 127.409 15.2028 127.655 16.0058C127.901 16.8088 128.25 17.4843 128.704 18.0322C129.157 18.5707 129.705 18.977 130.347 19.2509C130.99 19.5249 131.708 19.6619 132.501 19.6619C133.21 19.6619 133.824 19.5863 134.344 19.4351C134.863 19.2745 135.298 19.0998 135.647 18.9108C136.006 18.7124 136.29 18.5377 136.497 18.3865C136.705 18.2259 136.856 18.1456 136.951 18.1456C137.074 18.1456 137.168 18.1928 137.234 18.2873L137.603 18.7408C137.376 19.0242 137.074 19.2887 136.696 19.5343C136.327 19.78 135.912 19.9925 135.449 20.172C134.995 20.3421 134.504 20.4791 133.975 20.583C133.455 20.6869 132.931 20.7388 132.402 20.7388C131.439 20.7388 130.56 20.5735 129.766 20.2429C128.973 19.9028 128.293 19.4115 127.726 18.7691C127.159 18.1267 126.72 17.3426 126.408 16.4168C126.106 15.4815 125.954 14.414 125.954 13.2142C125.954 12.2033 126.096 11.2728 126.38 10.4226C126.672 9.56287 127.088 8.82599 127.627 8.21193C128.175 7.58842 128.841 7.10189 129.625 6.75234C130.418 6.4028 131.316 6.22803 132.317 6.22803ZM132.331 7.23415C131.604 7.23415 130.952 7.34751 130.376 7.57424C129.799 7.80098 129.299 8.1269 128.874 8.55202C128.458 8.97715 128.118 9.48729 127.853 10.0825C127.598 10.6776 127.428 11.3437 127.343 12.0805H136.639C136.639 11.3248 136.535 10.6493 136.327 10.0541C136.12 9.4495 135.827 8.93936 135.449 8.52368C135.071 8.10801 134.617 7.79153 134.088 7.57424C133.559 7.34751 132.974 7.23415 132.331 7.23415Z" fill="black"/>
</svg>
