<svg width="24" height="24" viewBox="0 0 24 24" fill="none" xmlns="http://www.w3.org/2000/svg">
<path opacity="0.2" d="M12 17.625C15.1066 17.625 17.625 15.1066 17.625 12C17.625 8.8934 15.1066 6.375 12 6.375C8.8934 6.375 6.375 8.8934 6.375 12C6.375 15.1066 8.8934 17.625 12 17.625Z" fill="#1D2026"/>
<path d="M12 17.625C15.1066 17.625 17.625 15.1066 17.625 12C17.625 8.8934 15.1066 6.375 12 6.375C8.8934 6.375 6.375 8.8934 6.375 12C6.375 15.1066 8.8934 17.625 12 17.625Z" stroke="#1D2026" stroke-width="1.5" stroke-linecap="round" stroke-linejoin="round"/>
<path d="M12 3.375V2.625" stroke="#1D2026" stroke-width="1.5" stroke-linecap="round" stroke-linejoin="round"/>
<path d="M5.90142 5.90118L5.37109 5.37085" stroke="#1D2026" stroke-width="1.5" stroke-linecap="round" stroke-linejoin="round"/>
<path d="M3.375 12H2.625" stroke="#1D2026" stroke-width="1.5" stroke-linecap="round" stroke-linejoin="round"/>
<path d="M5.90142 18.0988L5.37109 18.6291" stroke="#1D2026" stroke-width="1.5" stroke-linecap="round" stroke-linejoin="round"/>
<path d="M12 20.625V21.375" stroke="#1D2026" stroke-width="1.5" stroke-linecap="round" stroke-linejoin="round"/>
<path d="M18.0986 18.0988L18.629 18.6291" stroke="#1D2026" stroke-width="1.5" stroke-linecap="round" stroke-linejoin="round"/>
<path d="M20.625 12H21.375" stroke="#1D2026" stroke-width="1.5" stroke-linecap="round" stroke-linejoin="round"/>
<path d="M18.0986 5.90118L18.629 5.37085" stroke="#1D2026" stroke-width="1.5" stroke-linecap="round" stroke-linejoin="round"/>
</svg>
